<svg width="10" height="10" viewBox="0 0 10 10" fill="none" xmlns="http://www.w3.org/2000/svg">
<path fill-rule="evenodd" clip-rule="evenodd" d="M0.646445 9.14645C0.451183 9.34171 0.451183 9.65829 0.646445 9.85355C0.841707 10.0488 1.15829 10.0488 1.35355 9.85355L5.25 5.95711L9.14644 9.85355C9.34171 10.0488 9.65829 10.0488 9.85355 9.85355C10.0488 9.65829 10.0488 9.34171 9.85355 9.14645L5.95711 5.25L9.85355 1.35355C10.0488 1.15829 10.0488 0.841709 9.85355 0.646446C9.65829 0.451184 9.34171 0.451184 9.14644 0.646446L5.25 4.54289L1.35355 0.646447C1.15829 0.451184 0.841707 0.451184 0.646445 0.646447C0.451183 0.841709 0.451183 1.15829 0.646445 1.35355L4.54289 5.25L0.646445 9.14645Z" fill="#2C5CF6"/>
</svg>
