<svg width="17" height="15" viewBox="0 0 17 15" fill="none" xmlns="http://www.w3.org/2000/svg">
<path fill-rule="evenodd" clip-rule="evenodd" d="M4 2H13C13.1606 2 13.3168 2.01893 13.4665 2.05468L10.5348 4.76078C9.38566 5.82157 7.61435 5.82157 6.46517 4.76078L3.53356 2.05468C3.68321 2.01893 3.83939 2 4 2ZM2.08078 3.43548C2.02821 3.6145 2 3.80396 2 4V11C2 12.1046 2.89543 13 4 13H13C14.1046 13 15 12.1046 15 11V4C15 3.80396 14.9718 3.61451 14.9192 3.43548L11.8914 6.23039C9.9761 7.99837 7.02391 7.99837 5.1086 6.23039L2.08078 3.43548ZM0 4C0 1.79086 1.79086 0 4 0H13C15.2091 0 17 1.79086 17 4V11C17 13.2091 15.2091 15 13 15H4C1.79086 15 0 13.2091 0 11V4Z" fill="#9795A6"/>
</svg>
