<svg width="13" height="18" viewBox="0 0 13 18" fill="none" xmlns="http://www.w3.org/2000/svg">
<path fill-rule="evenodd" clip-rule="evenodd" d="M11 6.6087C11 6.88093 10.9047 7.39078 10.6203 8.16132C10.3479 8.8992 9.95245 9.74391 9.47756 10.6398C8.5643 12.3626 7.42543 14.1477 6.5 15.5204C5.57457 14.1477 4.4357 12.3626 3.52244 10.6398C3.04755 9.74391 2.65212 8.8992 2.37973 8.16132C2.09528 7.39078 2 6.88093 2 6.6087C2 4.03198 4.04586 2 6.5 2C8.95414 2 11 4.03198 11 6.6087ZM13 6.6087C13 9.1007 9.96992 13.9662 8.04742 16.8025C7.29545 17.9118 5.70455 17.9118 4.95258 16.8025C3.03008 13.9662 0 9.1007 0 6.6087C0 2.95881 2.91015 0 6.5 0C10.0899 0 13 2.95881 13 6.6087ZM7 6.5C7 6.77614 6.77614 7 6.5 7C6.22386 7 6 6.77614 6 6.5C6 6.22386 6.22386 6 6.5 6C6.77614 6 7 6.22386 7 6.5ZM9 6.5C9 7.88071 7.88071 9 6.5 9C5.11929 9 4 7.88071 4 6.5C4 5.11929 5.11929 4 6.5 4C7.88071 4 9 5.11929 9 6.5Z" fill="#9795A6"/>
</svg>
