<?xml version="1.0" standalone="no"?>
<!DOCTYPE svg PUBLIC "-//W3C//DTD SVG 20010904//EN"
 "http://www.w3.org/TR/2001/REC-SVG-20010904/DTD/svg10.dtd">
<svg version="1.0" xmlns="http://www.w3.org/2000/svg"
 width="700.000000pt" height="700.000000pt" viewBox="0 0 700.000000 700.000000"
 preserveAspectRatio="xMidYMid meet">
<metadata>
Created by potrace 1.11, written by Peter Selinger 2001-2013
</metadata>
<g transform="translate(0.000000,700.000000) scale(0.100000,-0.100000)"
fill="#000000" stroke="none">
<path d="M2525 5494 c-428 -76 -781 -387 -918 -809 -76 -232 -76 -518 0 -750
62 -191 152 -337 297 -481 112 -112 181 -162 313 -227 166 -83 274 -108 500
-116 l173 -6 -225 -420 c-124 -231 -235 -445 -246 -475 -74 -195 -56 -410 48
-590 51 -87 171 -207 260 -259 117 -69 199 -94 334 -99 122 -5 179 3 273 38
135 51 159 74 1037 981 459 474 863 894 898 933 35 38 75 94 88 123 110 240
-42 515 -304 553 -37 5 -242 10 -455 10 -214 0 -388 1 -388 3 0 2 124 235 276
518 151 282 282 529 289 547 80 189 -12 421 -203 510 l-57 27 -955 2 c-788 1
-969 -1 -1035 -13z m1882 -386 c-3 -7 -197 -371 -431 -808 l-426 -795 724 -5
723 -5 -585 -605 c-1121 -1160 -1141 -1181 -1202 -1209 -78 -37 -174 -36 -252
2 -74 36 -151 120 -173 188 -26 77 -17 167 25 249 18 36 187 354 376 707 189
353 347 649 350 657 5 13 -51 15 -468 18 -533 4 -522 3 -683 83 -165 81 -279
195 -360 360 -67 136 -79 195 -80 365 0 165 12 222 76 356 108 228 319 393
564 439 100 19 1830 21 1822 3z"/>
</g>
</svg>
