<svg width="27" height="30" viewBox="0 0 27 30" fill="none" xmlns="http://www.w3.org/2000/svg">
<path fill-rule="evenodd" clip-rule="evenodd" d="M26.7823 13.0888C27.2135 14.117 26.9927 15.3056 26.2217 16.1066L14.3549 28.4354C10.3473 32.599 3.70435 27.6945 6.42849 22.5835L9.43117 16.9498H8.26528C3.63676 16.9498 0 13.0904 0 8.47491C0 3.85943 3.63676 0 8.26528 0H20.1122C21.0816 0 21.9796 0.513795 22.477 1.35296C22.9744 2.19212 22.9979 3.23316 22.5389 4.09429L18.649 11.3925H24.2448C25.3517 11.3925 26.3512 12.0606 26.7823 13.0888ZM24.2448 14.1712L12.378 26.5C10.5969 28.3504 7.64446 26.1707 8.85519 23.8991L14.0401 14.1712H24.2448ZM14.0401 14.1712L20.1122 2.77866H8.26528C5.22209 2.77866 2.75509 5.32896 2.75509 8.47491C2.75509 11.6209 5.22209 14.1712 8.26528 14.1712H14.0401Z" fill="url(#paint0_linear)"/>
<defs>
<linearGradient id="paint0_linear" x1="13.5" y1="0" x2="13.5" y2="30" gradientUnits="userSpaceOnUse">
<stop stop-color="#C476A8"/>
<stop offset="1" stop-color="#657AEA"/>
</linearGradient>
</defs>
</svg>
