<?xml version="1.0" standalone="no"?>
<!DOCTYPE svg PUBLIC "-//W3C//DTD SVG 20010904//EN"
 "http://www.w3.org/TR/2001/REC-SVG-20010904/DTD/svg10.dtd">
<svg version="1.0" xmlns="http://www.w3.org/2000/svg"
 width="960.000000pt" height="960.000000pt" viewBox="0 0 960.000000 960.000000"
 preserveAspectRatio="xMidYMid meet">
<metadata>
Created by potrace 1.11, written by Peter Selinger 2001-2013
</metadata>
<g transform="translate(0.000000,960.000000) scale(0.100000,-0.100000)"
fill="#000000" stroke="none">
<path d="M2939 9596 c-2 -2 -35 -7 -74 -10 -123 -11 -167 -18 -270 -41 -38 -8
-82 -17 -96 -20 -99 -18 -406 -132 -539 -199 -53 -27 -146 -79 -180 -100 -65
-42 -125 -81 -130 -86 -3 -3 -27 -21 -55 -39 -27 -19 -52 -38 -55 -41 -3 -3
-14 -13 -26 -21 -99 -68 -313 -281 -427 -424 -27 -33 -55 -69 -64 -79 -32 -39
-163 -244 -163 -255 0 -6 -3 -11 -8 -11 -4 0 -13 -15 -21 -32 -8 -18 -17 -35
-21 -38 -13 -11 -109 -220 -150 -330 -15 -41 -31 -84 -35 -95 -5 -11 -9 -24
-10 -30 0 -5 -4 -17 -8 -25 -9 -22 -40 -132 -43 -155 -2 -11 -12 -59 -23 -106
-24 -105 -33 -162 -48 -304 -10 -89 -10 -449 0 -535 6 -60 10 -92 22 -175 11
-80 60 -287 90 -380 9 -27 18 -57 20 -65 8 -31 32 -90 38 -96 4 -4 7 -14 7
-21 0 -19 134 -307 150 -323 3 -3 14 -23 25 -45 11 -22 24 -43 30 -47 5 -4 7
-8 3 -8 -4 0 -1 -8 6 -17 8 -10 45 -63 82 -118 37 -55 70 -102 73 -105 3 -3
19 -23 36 -45 59 -80 292 -320 374 -385 24 -19 48 -40 55 -45 33 -30 166 -125
174 -125 6 0 12 -4 14 -8 7 -19 366 -217 414 -229 5 -1 56 -21 114 -43 58 -22
114 -42 125 -45 11 -2 52 -14 90 -25 39 -12 79 -23 90 -25 11 -2 45 -8 75 -15
30 -6 66 -13 80 -15 14 -2 41 -6 60 -10 109 -20 248 -28 518 -29 127 0 232 -3
232 -6 0 -9 -55 -115 -63 -121 -5 -3 -8 -9 -8 -13 1 -6 -5 -19 -61 -121 -15
-27 -34 -66 -43 -85 -9 -19 -19 -37 -23 -40 -4 -3 -27 -45 -52 -95 -25 -49
-48 -91 -52 -93 -5 -2 -8 -12 -8 -22 0 -10 -3 -20 -7 -22 -5 -1 -21 -29 -37
-61 -16 -31 -33 -60 -37 -63 -5 -3 -7 -9 -4 -14 3 -5 1 -11 -3 -14 -5 -3 -31
-47 -57 -98 -26 -51 -66 -127 -89 -168 -23 -41 -52 -97 -66 -125 -14 -27 -27
-52 -31 -55 -3 -3 -13 -22 -22 -42 -9 -20 -33 -64 -52 -97 -18 -34 -31 -61
-27 -61 4 0 2 -4 -4 -8 -9 -6 -70 -118 -175 -322 -19 -36 -37 -66 -41 -68 -5
-2 -8 -9 -8 -16 0 -6 -13 -36 -28 -66 -16 -30 -39 -84 -51 -120 -13 -36 -27
-74 -32 -85 -5 -11 -11 -29 -14 -40 -2 -11 -13 -60 -24 -110 -11 -49 -23 -115
-27 -145 -9 -71 -13 -310 -5 -310 3 0 6 -21 7 -48 2 -75 47 -270 84 -357 37
-89 87 -194 102 -214 10 -13 18 -30 18 -38 0 -7 6 -16 14 -19 8 -3 17 -15 20
-27 3 -13 14 -31 24 -42 10 -11 23 -28 28 -36 29 -51 201 -235 289 -310 46
-38 184 -132 240 -163 28 -16 56 -33 64 -40 8 -6 15 -10 15 -8 1 2 31 -10 67
-27 82 -37 225 -85 304 -101 33 -7 67 -14 75 -17 52 -17 350 -24 455 -10 33 5
71 10 85 12 14 1 25 4 25 5 0 2 137 40 160 44 62 11 386 179 415 215 3 3 21
17 40 31 68 47 201 177 469 457 57 59 199 207 315 327 116 120 231 240 256
266 25 26 140 145 255 265 220 229 275 286 520 540 309 322 360 374 529 550
96 99 200 207 232 240 31 33 138 145 238 248 264 274 310 322 531 552 110 114
227 236 260 270 283 292 432 450 463 492 55 75 65 90 64 99 0 5 5 16 12 24 18
20 72 162 87 230 14 60 18 257 7 330 -4 25 -17 77 -29 115 -13 39 -23 72 -24
75 -13 54 -104 196 -174 272 -106 115 -286 225 -416 253 -11 2 -31 7 -45 10
-60 15 -154 17 -1037 18 -513 1 -933 3 -933 5 0 1 24 46 53 100 28 53 61 115
72 137 11 22 22 42 25 45 3 3 21 37 41 75 40 77 112 214 167 315 19 36 64 121
100 190 36 69 68 127 71 130 3 3 25 43 49 90 24 47 60 117 80 155 21 39 63
117 94 175 30 58 68 128 83 155 15 28 56 106 92 174 36 68 76 143 88 165 13
23 43 79 67 126 24 47 45 87 48 90 5 4 59 108 95 180 5 11 13 20 18 20 4 0 5
5 2 11 -4 5 0 18 8 27 8 9 26 49 41 89 60 170 68 382 20 542 -10 31 -18 61
-19 67 -6 25 -59 130 -86 170 -16 23 -29 45 -29 49 0 7 -48 60 -108 121 -54
55 -188 143 -269 177 -35 15 -63 24 -63 20 0 -3 -6 -1 -12 5 -7 6 -31 13 -54
16 -22 4 -56 11 -75 16 -31 9 -4100 15 -4110 6z m3968 -890 c3 -2 -14 -40 -37
-83 -24 -43 -65 -121 -92 -173 -28 -52 -63 -117 -78 -145 -15 -27 -46 -85 -69
-127 -22 -43 -58 -111 -80 -150 -21 -40 -56 -107 -77 -148 -22 -41 -41 -77
-44 -80 -3 -3 -15 -25 -27 -50 -12 -25 -43 -83 -68 -130 -26 -47 -71 -132
-102 -190 -31 -58 -76 -143 -101 -190 -55 -102 -112 -209 -144 -270 -51 -96
-160 -302 -176 -333 -9 -18 -21 -35 -27 -39 -5 -4 -7 -8 -3 -8 4 0 -8 -26 -26
-57 -18 -32 -59 -107 -91 -168 -32 -60 -72 -137 -90 -170 -18 -33 -53 -99 -79
-147 -84 -160 -133 -252 -171 -323 -21 -38 -50 -92 -65 -120 -14 -27 -47 -88
-72 -135 -25 -47 -66 -123 -90 -170 -25 -47 -62 -116 -82 -153 -21 -38 -35
-72 -31 -75 3 -4 732 -7 1620 -7 887 0 1616 -2 1618 -5 3 -3 -56 -69 -131
-147 -75 -78 -216 -223 -312 -323 -96 -101 -230 -239 -297 -309 -178 -185
-258 -268 -458 -476 -99 -103 -219 -228 -267 -278 -49 -49 -88 -94 -88 -98 0
-5 -6 -9 -14 -9 -8 0 -16 -4 -18 -10 -3 -9 -179 -195 -381 -404 -100 -103
-370 -383 -524 -544 -57 -59 -103 -110 -103 -114 0 -5 -4 -8 -10 -8 -5 0 -31
-23 -57 -52 -26 -28 -75 -80 -108 -114 -33 -34 -141 -146 -240 -249 -99 -103
-209 -218 -245 -255 -36 -37 -148 -154 -250 -260 -269 -280 -349 -360 -359
-360 -5 0 -14 -7 -21 -15 -21 -25 -137 -86 -203 -107 -167 -52 -343 -35 -511
49 -68 34 -79 42 -117 75 -10 10 -22 18 -25 18 -8 0 -87 83 -118 123 -14 18
-40 60 -60 95 -31 55 -42 82 -63 162 -24 87 -24 221 2 320 21 83 28 101 98
234 31 61 67 131 80 156 12 25 28 51 35 58 6 7 12 17 12 22 0 5 13 32 30 60
16 27 26 50 22 50 -4 0 -2 4 3 8 6 4 22 30 36 57 29 55 92 175 159 300 23 44
63 118 87 165 25 47 58 108 73 135 15 28 48 88 73 135 24 47 77 145 116 218
39 74 71 136 71 139 0 3 9 17 19 31 10 15 19 29 18 32 0 3 15 32 34 65 18 33
32 60 29 60 -3 0 4 14 16 30 11 17 31 50 43 75 13 25 40 77 61 115 20 39 61
115 90 170 75 141 101 188 112 203 6 6 7 12 3 12 -4 0 -2 6 4 13 6 8 25 40 42
73 17 32 48 91 69 129 20 39 65 124 100 190 35 66 74 137 87 157 13 21 21 38
17 38 -3 0 3 12 14 28 17 24 72 128 72 134 0 2 -429 4 -952 4 -886 1 -1110 4
-1148 17 -8 3 -46 11 -85 17 -103 18 -291 82 -408 139 -107 52 -298 173 -331
210 -11 12 -23 21 -28 21 -12 0 -197 187 -233 235 -17 22 -32 42 -36 45 -11
10 -89 119 -89 125 0 4 -11 21 -24 38 -55 73 -187 379 -210 487 -3 14 -14 66
-25 115 -24 112 -34 189 -35 282 -1 40 -5 73 -9 73 -5 0 -5 5 -1 12 4 7 9 48
10 93 2 77 8 140 21 215 3 19 7 44 8 55 2 11 8 40 15 65 7 25 14 54 16 65 5
28 43 146 54 170 5 11 20 48 34 83 22 54 78 163 136 261 50 84 200 266 280
339 102 93 137 121 230 183 58 38 110 74 117 79 7 6 17 10 24 10 6 0 23 8 37
18 28 19 53 30 62 28 3 0 18 7 32 16 23 15 245 97 266 98 6 0 66 11 82 15 12
3 78 15 110 20 19 3 89 8 155 11 66 3 121 6 122 7 4 5 3736 -2 3740 -7z"/>
</g>
</svg>
